Normalized EMG Linear Envelopes
nRows=32
nColumns=17

endheader
time	1_BAD	2_Glutmax_R	3_Vaslat_R	4_Recfem_R	5_Bifem_R	6_Gasmed_R	7_BAD	8_Soleus_R	9_Tibant_R	10_Glutmax_L	11_Vaslat_L	12_Recfem_L	13_Bifem_L	14_Gasmed_L	15_Soleus_L	16_Tibant_L	
22.805	  0.012467	  0.092171	  0.004013	  0.126330	  0.022609	 -0.001408	  0.208106	  0.016210	  0.058122	  0.574338	  0.637200	  0.370402	  0.393558	  0.586808	  0.627924	  0.938277	
22.806	  0.012467	  0.093367	  0.004074	  0.125761	  0.022932	 -0.001637	  0.210392	  0.015746	  0.057174	  0.577107	  0.644877	  0.378216	  0.402606	  0.602293	  0.639248	  0.940382	
22.807	  0.012467	  0.094521	  0.004133	  0.125117	  0.023255	 -0.001698	  0.212740	  0.015330	  0.056214	  0.579610	  0.652926	  0.386368	  0.411973	  0.617673	  0.650464	  0.942210	
22.808	  0.012467	  0.095632	  0.004189	  0.124403	  0.023577	 -0.001595	  0.215149	  0.014961	  0.055241	  0.581849	  0.661328	  0.394846	  0.421635	  0.632916	  0.661558	  0.943743	
22.809	  0.012467	  0.096697	  0.004244	  0.123622	  0.023899	 -0.001333	  0.217615	  0.014640	  0.054257	  0.583826	  0.670067	  0.403635	  0.431572	  0.647992	  0.672516	  0.944962	
22.810	  0.012467	  0.097716	  0.004297	  0.122777	  0.024218	 -0.000916	  0.220134	  0.014365	  0.053262	  0.585543	  0.679119	  0.412719	  0.441758	  0.662868	  0.683322	  0.945852	
22.811	  0.012467	  0.098686	  0.004349	  0.121874	  0.024534	 -0.000351	  0.222703	  0.014136	  0.052260	  0.587005	  0.688464	  0.422082	  0.452169	  0.677513	  0.693962	  0.946394	
22.812	  0.012467	  0.099607	  0.004401	  0.120917	  0.024847	  0.000359	  0.225317	  0.013953	  0.051249	  0.588215	  0.698078	  0.431705	  0.462781	  0.691897	  0.704421	  0.946571	
22.813	  0.012467	  0.100476	  0.004453	  0.119910	  0.025155	  0.001207	  0.227971	  0.013816	  0.050233	  0.589180	  0.707934	  0.441569	  0.473568	  0.705991	  0.714685	  0.946366	
22.814	  0.012467	  0.101294	  0.004505	  0.118857	  0.025457	  0.002189	  0.230658	  0.013725	  0.049213	  0.589904	  0.718006	  0.451651	  0.484504	  0.719765	  0.724737	  0.945761	
22.815	  0.012467	  0.102058	  0.004559	  0.117763	  0.025754	  0.003299	  0.233373	  0.013680	  0.048189	  0.590396	  0.728265	  0.461929	  0.495562	  0.733193	  0.734562	  0.944741	
22.816	  0.012467	  0.102768	  0.004616	  0.116632	  0.026043	  0.004530	  0.236110	  0.013681	  0.047165	  0.590662	  0.738683	  0.472381	  0.506716	  0.746245	  0.744147	  0.943290	
22.817	  0.012467	  0.103424	  0.004676	  0.115470	  0.026324	  0.005878	  0.238859	  0.013729	  0.046142	  0.590711	  0.749228	  0.482981	  0.517938	  0.758898	  0.753474	  0.941392	
22.818	  0.012467	  0.104023	  0.004740	  0.114281	  0.026596	  0.007336	  0.241615	  0.013825	  0.045123	  0.590551	  0.759870	  0.493702	  0.529201	  0.771124	  0.762530	  0.939033	
22.819	  0.012467	  0.104566	  0.004809	  0.113069	  0.026859	  0.008898	  0.244368	  0.013969	  0.044108	  0.590192	  0.770575	  0.504519	  0.540479	  0.782901	  0.771299	  0.936199	
22.820	  0.012467	  0.105053	  0.004886	  0.111839	  0.027112	  0.010560	  0.247110	  0.014162	  0.043102	  0.589643	  0.781311	  0.515403	  0.551743	  0.794206	  0.779765	  0.932879	
22.821	  0.012467	  0.105483	  0.004969	  0.110595	  0.027354	  0.012314	  0.249833	  0.014406	  0.042105	  0.588914	  0.792043	  0.526326	  0.562966	  0.805015	  0.787915	  0.929060	
22.822	  0.012467	  0.105856	  0.005062	  0.109343	  0.027585	  0.014154	  0.252527	  0.014701	  0.041122	  0.588016	  0.802736	  0.537258	  0.574122	  0.815310	  0.795733	  0.924732	
22.823	  0.012467	  0.106171	  0.005165	  0.108085	  0.027803	  0.016075	  0.255183	  0.015049	  0.040155	  0.586959	  0.813357	  0.548169	  0.585182	  0.825069	  0.803205	  0.919888	
22.824	  0.012467	  0.106430	  0.005279	  0.106826	  0.028009	  0.018071	  0.257791	  0.015452	  0.039206	  0.585755	  0.823870	  0.559028	  0.596121	  0.834276	  0.810316	  0.914518	
22.825	  0.012467	  0.106633	  0.005406	  0.105571	  0.028202	  0.020135	  0.260341	  0.015911	  0.038279	  0.584413	  0.834240	  0.569804	  0.606911	  0.842912	  0.817053	  0.908617	
22.826	  0.012467	  0.106779	  0.005547	  0.104323	  0.028381	  0.022262	  0.262823	  0.016428	  0.037377	  0.582946	  0.844431	  0.580466	  0.617527	  0.850962	  0.823401	  0.902181	
22.827	  0.012467	  0.106870	  0.005703	  0.103085	  0.028546	  0.024444	  0.265228	  0.017006	  0.036503	  0.581363	  0.854408	  0.590981	  0.627944	  0.858412	  0.829347	  0.895206	
22.828	  0.012467	  0.106906	  0.005877	  0.101862	  0.028696	  0.026677	  0.267545	  0.017647	  0.035661	  0.579677	  0.864136	  0.601320	  0.638136	  0.865249	  0.834878	  0.887692	
22.829	  0.012467	  0.106888	  0.006068	  0.100657	  0.028831	  0.028955	  0.269764	  0.018352	  0.034854	  0.577897	  0.873581	  0.611449	  0.648080	  0.871459	  0.839982	  0.879638	
22.830	  0.012467	  0.106818	  0.006279	  0.099472	  0.028952	  0.031270	  0.271877	  0.019125	  0.034086	  0.576034	  0.882709	  0.621337	  0.657751	  0.877033	  0.844646	  0.871047	
22.831	  0.012467	  0.106695	  0.006511	  0.098311	  0.029057	  0.033618	  0.273873	  0.019968	  0.033361	  0.574099	  0.891486	  0.630953	  0.667127	  0.881962	  0.848860	  0.861923	
22.832	  0.012467	  0.106522	  0.006766	  0.097176	  0.029146	  0.035992	  0.275742	  0.020884	  0.032682	  0.572102	  0.899879	  0.640266	  0.676186	  0.886237	  0.852612	  0.852271	
22.833	  0.012467	  0.106300	  0.007043	  0.096070	  0.029220	  0.038387	  0.277477	  0.021875	  0.032054	  0.570051	  0.907858	  0.649247	  0.684906	  0.889852	  0.855893	  0.842100	
22.834	  0.012467	  0.106030	  0.007346	  0.094996	  0.029278	  0.040797	  0.279068	  0.022946	  0.031481	  0.567958	  0.915390	  0.657865	  0.693267	  0.892801	  0.858693	  0.831418	
22.835	  0.012467	  0.105713	  0.007675	  0.093955	  0.029320	  0.043215	  0.280507	  0.024099	  0.030965	  0.565830	  0.922447	  0.666093	  0.701251	  0.895081	  0.861004	  0.820236	
22.836	  0.012467	  0.105352	  0.008031	  0.092950	  0.029347	  0.045637	  0.281788	  0.025337	  0.030513	  0.563675	  0.929000	  0.673902	  0.708837	  0.896689	  0.862817	  0.808568	
